<?xml version="1.0" encoding="utf-8"?>
<!-- Generator: Adobe Illustrator 16.0.0, SVG Export Plug-In . SVG Version: 6.00 Build 0)  -->
<!DOCTYPE svg PUBLIC "-//W3C//DTD SVG 1.1//EN" "http://www.w3.org/Graphics/SVG/1.1/DTD/svg11.dtd">
<svg version="1.1" xmlns="http://www.w3.org/2000/svg" xmlns:xlink="http://www.w3.org/1999/xlink" x="0px" y="0px"
	 width="1683.779px" height="1190.551px" viewBox="0 0 1683.779 1190.551" enable-background="new 0 0 1683.779 1190.551"
	 xml:space="preserve">
<g id="Document_Grid">
</g>
<g id="Layer_1" display="none">
</g>
<g id="Desktop" display="none">
</g>
<g id="Guides" display="none">
</g>
<g id="Page_1">
	<g id="Layer_1_1_">
		<g>
			
				<radialGradient id="SVGID_1_" cx="6.02" cy="1171.9619" r="6.5913" gradientTransform="matrix(14.6092 0 0 14.6092 459.3281 -16484.7871)" gradientUnits="userSpaceOnUse">
				<stop  offset="0" style="stop-color:#BFD730"/>
				<stop  offset="1" style="stop-color:#77B250"/>
			</radialGradient>
			<path fill-rule="evenodd" clip-rule="evenodd" fill="url(#SVGID_1_)" d="M459.367,615.205
				c14.132,32.058,47.602,53.073,82.327,57.752c1.369-1.198,2.896-2.239,4.522-3.109c-8.375-3.98-14.324-12.427-14.638-22.328
				c-0.386-14.081,10.693-25.837,24.774-26.265c14.096,0.413,25.181,12.155,24.76,26.251c-0.292,9.93-6.221,18.347-14.631,22.342
				c1.477,0.784,2.868,1.74,4.145,2.796c31.123-5.778,55.77-30.089,62.025-61.048c0.585,27.55-9.701,54.685-32.614,71.648
				l-0.542-0.485l0.05,0.842c-3.031,2.211-6.277,4.237-9.751,6.077l-0.222,0.114l-1.897-2.14l-0.214,3.253l-2.796,1.483
				c-2.233,0.913-4.43,1.727-6.648,2.469l-2.653-3.924l-1.014,5.094c-2.96,0.884-5.899,1.598-8.838,2.196l-2.789-5.593l-2.219,6.449
				c-2.696,0.385-5.371,0.628-8.046,0.771l-2.476-7.248l-3.667,7.348c-1.069-0.028-2.146-0.057-3.217-0.128
				c-1.377-0.172-2.739-0.386-4.102-0.6l-1.677-8.289l-4.723,7.02c-2.368-0.557-4.708-1.185-7.012-1.884l-0.578-8.417l-5.592,6.334
				c-2.283-0.855-4.516-1.769-6.72-2.781l0.514-8.446l-6.378,5.564c-2.14-1.142-4.229-2.354-6.277-3.639l1.605-8.289l-7.041,4.651
				c-1.969-1.412-3.888-2.882-5.757-4.423l2.676-8.004l-7.591,3.681c-1.769-1.641-3.474-3.353-5.121-5.121l3.688-7.576l-7.989,2.668
				c-1.541-1.869-3.018-3.78-4.43-5.749l4.65-7.048l-8.281,1.611c-1.284-2.054-2.497-4.151-3.646-6.306l5.557-6.349l-8.438,0.514
				c-0.999-2.197-1.933-4.437-2.782-6.705l6.335-5.621l-8.432-0.571c-0.706-2.297-1.327-4.637-1.869-7.005L459.367,615.205
				L459.367,615.205z M452.384,578.197c-0.093,2.511-0.071,4.993,0.05,7.419l-0.941-0.471
				C451.721,582.806,452.006,580.48,452.384,578.197L452.384,578.197z M452.869,591.023c0.343,3.096,0.849,6.092,1.513,9.045
				l-3.324-1.155c-0.043-1.199-0.071-2.411-0.071-3.624c0-1.227,0.028-2.426,0.071-3.638L452.869,591.023L452.869,591.023z
				 M455.244,603.55c0.971,3.566,2.154,7.019,3.567,10.372l-6.399-1.271c-0.392-2.382-0.706-4.793-0.941-7.219L455.244,603.55
				L455.244,603.55z"/>
			
				<radialGradient id="SVGID_2_" cx="2.9121" cy="1171.8906" r="6.0573" gradientTransform="matrix(14.6092 0 0 14.6092 496.6641 -16554.4199)" gradientUnits="userSpaceOnUse">
				<stop  offset="0" style="stop-color:#8ED8F8"/>
				<stop  offset="1" style="stop-color:#0095DA"/>
			</radialGradient>
			<path fill-rule="evenodd" clip-rule="evenodd" fill="url(#SVGID_2_)" d="M496.7,545.575c0.15,1.213,0.193,2.426,0.157,3.667
				c7.64-5.265,17.919-6.192,26.657-1.513c12.384,6.706,17.027,22.171,10.358,34.583c-7.405,11.998-23.12,15.722-35.111,8.317
				c-8.46-5.222-12.775-14.552-12.034-23.84c-1.005,0.628-2.047,1.185-3.131,1.655c-11.563,30.288-2.961,64.714,21.193,86.015
				c-24.567-13.482-43.114-36.48-45.875-65.499l0.128-0.043l-0.143-0.071c-0.32-3.424-0.435-6.934-0.3-10.529l0.064-1.641
				l2.048-0.413l-1.99-1.342l0.093-2.411c0.392-2.839,0.884-5.606,1.462-8.303l3.709-0.257l-3.031-2.683
				c0.792-3.238,1.719-6.377,2.796-9.43l5.144,0.313l-3.674-4.194c1.127-2.782,2.383-5.479,3.76-8.075l6.27,1.213l-3.752-5.664
				c1.427-2.34,2.953-4.594,4.594-6.763l6.927,2.312l-3.31-6.791c1.684-1.954,3.474-3.823,5.35-5.636l6.983,3.396l-2.482-7.433
				c1.927-1.612,3.938-3.167,6.05-4.665l6.563,4.337l-1.498-7.704c0.956-0.585,1.919-1.185,2.91-1.755
				c1.234-0.713,2.49-1.384,3.745-2.055l5.885,5.137l-0.478-7.775c2.361-1.07,4.736-2.04,7.134-2.939l5.157,5.835l0.527-7.746
				c2.469-0.757,4.944-1.413,7.44-1.983l4.352,6.448l1.512-7.604c2.562-0.428,5.115-0.77,7.676-0.998l3.453,6.905l2.511-7.291
				c2.582-0.085,5.157-0.085,7.732,0.015l2.489,7.305l3.46-6.92c2.575,0.243,5.136,0.585,7.683,1.027l1.526,7.562l4.302-6.405
				c2.511,0.57,5.008,1.227,7.476,1.982l0.507,7.305C552.826,499.022,517.951,517.712,496.7,545.575L496.7,545.575z
				 M592.823,497.125c2.418,0.899,4.794,1.869,7.147,2.939l-0.278,4.594c-3.881-0.984-7.775-1.684-11.677-2.083L592.823,497.125
				L592.823,497.125z M605.363,502.704c2.262,1.184,4.494,2.453,6.67,3.809l-0.414,2.154c-3.074-1.298-6.185-2.411-9.309-3.296
				L605.363,502.704L605.363,502.704z M617.098,509.852c2.076,1.455,4.109,2.996,6.078,4.608l-0.05,0.156
				c-2.383-1.47-4.779-2.796-7.212-3.98L617.098,509.852L617.098,509.852z"/>
			
				<radialGradient id="SVGID_3_" cx="-2.459" cy="1164.8809" r="7.1667" gradientTransform="matrix(14.6092 0 0 14.6092 622.1797 -16430.6074)" gradientUnits="userSpaceOnUse">
				<stop  offset="0" style="stop-color:#D80B8C"/>
				<stop  offset="1" style="stop-color:#A3238E"/>
			</radialGradient>
			<path fill-rule="evenodd" clip-rule="evenodd" fill="url(#SVGID_3_)" d="M622.216,669.381
				c20.252-28.705,21.15-68.51,7.233-100.795c-1.191-0.5-2.347-1.099-3.46-1.784c0.735,9.245-3.603,18.604-12.02,23.84
				c-12.006,7.376-27.721,3.652-35.132-8.317c-6.691-12.426-2.062-27.892,10.351-34.568c8.752-4.723,18.996-3.795,26.664,1.498
				c-0.035-1.07,0-2.126,0.107-3.195c-20.53-24.482-54.192-33.898-84.359-23.755c26.821-16.264,60.213-20.045,89.039-1.926
				l0.456,0.285l-0.428,1.284l1.398-0.671l3.488,2.184c1.933,1.498,3.773,3.038,5.55,4.607l-1.413,2.911l3.382-1.127
				c2.511,2.325,4.864,4.736,7.048,7.219l-2.661,4.037l5.207-1.013c1.912,2.368,3.688,4.794,5.322,7.305l-4.159,4.751l6.806-0.414
				c1.341,2.368,2.567,4.794,3.681,7.262l-5.6,4.965l7.832,0.528c0.856,2.354,1.598,4.751,2.247,7.204l-6.798,4.58l8.218,1.641
				c0.214,1.084,0.399,2.183,0.57,3.296l0.093,0.67c0.143,1.085,0.257,2.184,0.356,3.268l-7.547,3.767l7.961,2.753
				c0.043,1.198,0.071,2.397,0.071,3.624c0,1.213-0.028,2.439-0.071,3.638l-7.982,2.726l7.568,3.78
				c-0.235,2.426-0.549,4.837-0.948,7.205l-8.289,1.684l7.026,4.736c-0.55,2.354-1.17,4.693-1.869,6.99l-8.438,0.585l6.334,5.593
				c-0.855,2.283-1.776,4.522-2.774,6.72l-8.461-0.514l5.558,6.363c-1.142,2.14-2.354,4.237-3.639,6.292l-8.274-1.612l4.644,7.033
				c-1.405,1.969-2.882,3.895-4.423,5.764l-7.989-2.668l3.674,7.576c-1.647,1.769-3.359,3.495-5.129,5.136L622.216,669.381
				L622.216,669.381z M598.126,692.051l1.862-1.199l0.021,0.357L598.126,692.051L598.126,692.051z M604.817,687.414
				c2.376-1.813,4.63-3.724,6.748-5.735l0.585,2.996c-2.054,1.284-4.158,2.511-6.299,3.652L604.817,687.414L604.817,687.414z
				 M614.354,678.911c2.525-2.64,4.858-5.407,6.977-8.304l2.005,6.006c-1.862,1.541-3.781,3.025-5.757,4.423L614.354,678.911
				L614.354,678.911z"/>
		</g>
	</g>
</g>
</svg>
