<?xml version="1.0" encoding="utf-8"?>
<!-- Generator: Adobe Illustrator 16.0.0, SVG Export Plug-In . SVG Version: 6.00 Build 0)  -->
<!DOCTYPE svg PUBLIC "-//W3C//DTD SVG 1.1//EN" "http://www.w3.org/Graphics/SVG/1.1/DTD/svg11.dtd">
<svg version="1.1" xmlns="http://www.w3.org/2000/svg" xmlns:xlink="http://www.w3.org/1999/xlink" x="0px" y="0px"
	 width="1683.779px" height="1190.551px" viewBox="0 0 1683.779 1190.551" enable-background="new 0 0 1683.779 1190.551"
	 xml:space="preserve">
<g id="Document_Grid">
</g>
<g id="Layer_1" display="none">
</g>
<g id="Desktop" display="none">
</g>
<g id="Guides" display="none">
</g>
<g id="Page_1">
	<g id="Layer_1_1_">
		<rect x="178.198" y="125.999" fill-rule="evenodd" clip-rule="evenodd" fill="#FFFFFF" width="1327.383" height="938.553"/>
		<g>
			
				<radialGradient id="SVGID_1_" cx="6.02" cy="1171.9619" r="6.5913" gradientTransform="matrix(14.6092 0 0 14.6092 459.3281 -16484.7871)" gradientUnits="userSpaceOnUse">
				<stop  offset="0" style="stop-color:#BFD730"/>
				<stop  offset="1" style="stop-color:#77B250"/>
			</radialGradient>
			<path fill-rule="evenodd" clip-rule="evenodd" fill="url(#SVGID_1_)" d="M459.367,615.205
				c14.132,32.058,47.602,53.073,82.327,57.752c1.369-1.198,2.896-2.239,4.522-3.109c-8.375-3.98-14.324-12.427-14.638-22.328
				c-0.386-14.081,10.693-25.837,24.774-26.265c14.096,0.413,25.181,12.155,24.76,26.251c-0.292,9.93-6.221,18.347-14.631,22.342
				c1.477,0.784,2.868,1.74,4.145,2.796c31.123-5.778,55.77-30.089,62.025-61.048c0.585,27.55-9.701,54.685-32.614,71.648
				l-0.542-0.485l0.05,0.842c-3.031,2.211-6.277,4.237-9.751,6.077l-0.222,0.114l-1.897-2.14l-0.214,3.253l-2.796,1.483
				c-2.233,0.913-4.43,1.727-6.648,2.469l-2.653-3.924l-1.014,5.094c-2.96,0.884-5.899,1.598-8.838,2.196l-2.789-5.593l-2.219,6.449
				c-2.696,0.385-5.371,0.628-8.046,0.771l-2.476-7.248l-3.667,7.348c-1.069-0.028-2.146-0.057-3.217-0.128
				c-1.377-0.172-2.739-0.386-4.102-0.6l-1.677-8.289l-4.723,7.02c-2.368-0.557-4.708-1.185-7.012-1.884l-0.578-8.417l-5.592,6.334
				c-2.283-0.855-4.516-1.769-6.72-2.781l0.514-8.446l-6.378,5.564c-2.14-1.142-4.229-2.354-6.277-3.639l1.605-8.289l-7.041,4.651
				c-1.969-1.412-3.888-2.882-5.757-4.423l2.676-8.004l-7.591,3.681c-1.769-1.641-3.474-3.353-5.121-5.121l3.688-7.576l-7.989,2.668
				c-1.541-1.869-3.018-3.78-4.43-5.749l4.65-7.048l-8.281,1.611c-1.284-2.054-2.497-4.151-3.646-6.306l5.557-6.349l-8.438,0.514
				c-0.999-2.197-1.933-4.437-2.782-6.705l6.335-5.621l-8.432-0.571c-0.706-2.297-1.327-4.637-1.869-7.005L459.367,615.205
				L459.367,615.205z M452.384,578.197c-0.093,2.511-0.071,4.993,0.05,7.419l-0.941-0.471
				C451.721,582.806,452.006,580.48,452.384,578.197L452.384,578.197z M452.869,591.023c0.343,3.096,0.849,6.092,1.513,9.045
				l-3.324-1.155c-0.043-1.199-0.071-2.411-0.071-3.624c0-1.227,0.028-2.426,0.071-3.638L452.869,591.023L452.869,591.023z
				 M455.244,603.55c0.971,3.566,2.154,7.019,3.567,10.372l-6.399-1.271c-0.392-2.382-0.706-4.793-0.941-7.219L455.244,603.55
				L455.244,603.55z"/>
			
				<radialGradient id="SVGID_2_" cx="2.9121" cy="1171.8906" r="6.0573" gradientTransform="matrix(14.6092 0 0 14.6092 496.6641 -16554.4199)" gradientUnits="userSpaceOnUse">
				<stop  offset="0" style="stop-color:#8ED8F8"/>
				<stop  offset="1" style="stop-color:#0095DA"/>
			</radialGradient>
			<path fill-rule="evenodd" clip-rule="evenodd" fill="url(#SVGID_2_)" d="M496.7,545.575c0.15,1.213,0.193,2.426,0.157,3.667
				c7.64-5.265,17.919-6.192,26.657-1.513c12.384,6.706,17.027,22.171,10.358,34.583c-7.405,11.998-23.12,15.722-35.111,8.317
				c-8.46-5.222-12.775-14.552-12.034-23.84c-1.005,0.628-2.047,1.185-3.131,1.655c-11.563,30.288-2.961,64.714,21.193,86.015
				c-24.567-13.482-43.114-36.48-45.875-65.499l0.128-0.043l-0.143-0.071c-0.32-3.424-0.435-6.934-0.3-10.529l0.064-1.641
				l2.048-0.413l-1.99-1.342l0.093-2.411c0.392-2.839,0.884-5.606,1.462-8.303l3.709-0.257l-3.031-2.683
				c0.792-3.238,1.719-6.377,2.796-9.43l5.144,0.313l-3.674-4.194c1.127-2.782,2.383-5.479,3.76-8.075l6.27,1.213l-3.752-5.664
				c1.427-2.34,2.953-4.594,4.594-6.763l6.927,2.312l-3.31-6.791c1.684-1.954,3.474-3.823,5.35-5.636l6.983,3.396l-2.482-7.433
				c1.927-1.612,3.938-3.167,6.05-4.665l6.563,4.337l-1.498-7.704c0.956-0.585,1.919-1.185,2.91-1.755
				c1.234-0.713,2.49-1.384,3.745-2.055l5.885,5.137l-0.478-7.775c2.361-1.07,4.736-2.04,7.134-2.939l5.157,5.835l0.527-7.746
				c2.469-0.757,4.944-1.413,7.44-1.983l4.352,6.448l1.512-7.604c2.562-0.428,5.115-0.77,7.676-0.998l3.453,6.905l2.511-7.291
				c2.582-0.085,5.157-0.085,7.732,0.015l2.489,7.305l3.46-6.92c2.575,0.243,5.136,0.585,7.683,1.027l1.526,7.562l4.302-6.405
				c2.511,0.57,5.008,1.227,7.476,1.982l0.507,7.305C552.826,499.022,517.951,517.712,496.7,545.575L496.7,545.575z
				 M592.823,497.125c2.418,0.899,4.794,1.869,7.147,2.939l-0.278,4.594c-3.881-0.984-7.775-1.684-11.677-2.083L592.823,497.125
				L592.823,497.125z M605.363,502.704c2.262,1.184,4.494,2.453,6.67,3.809l-0.414,2.154c-3.074-1.298-6.185-2.411-9.309-3.296
				L605.363,502.704L605.363,502.704z M617.098,509.852c2.076,1.455,4.109,2.996,6.078,4.608l-0.05,0.156
				c-2.383-1.47-4.779-2.796-7.212-3.98L617.098,509.852L617.098,509.852z"/>
			
				<radialGradient id="SVGID_3_" cx="-2.459" cy="1164.8809" r="7.1667" gradientTransform="matrix(14.6092 0 0 14.6092 622.1797 -16430.6074)" gradientUnits="userSpaceOnUse">
				<stop  offset="0" style="stop-color:#D80B8C"/>
				<stop  offset="1" style="stop-color:#A3238E"/>
			</radialGradient>
			<path fill-rule="evenodd" clip-rule="evenodd" fill="url(#SVGID_3_)" d="M622.216,669.381
				c20.252-28.705,21.15-68.51,7.233-100.795c-1.191-0.5-2.347-1.099-3.46-1.784c0.735,9.245-3.603,18.604-12.02,23.84
				c-12.006,7.376-27.721,3.652-35.132-8.317c-6.691-12.426-2.062-27.892,10.351-34.568c8.752-4.723,18.996-3.795,26.664,1.498
				c-0.035-1.07,0-2.126,0.107-3.195c-20.53-24.482-54.192-33.898-84.359-23.755c26.821-16.264,60.213-20.045,89.039-1.926
				l0.456,0.285l-0.428,1.284l1.398-0.671l3.488,2.184c1.933,1.498,3.773,3.038,5.55,4.607l-1.413,2.911l3.382-1.127
				c2.511,2.325,4.864,4.736,7.048,7.219l-2.661,4.037l5.207-1.013c1.912,2.368,3.688,4.794,5.322,7.305l-4.159,4.751l6.806-0.414
				c1.341,2.368,2.567,4.794,3.681,7.262l-5.6,4.965l7.832,0.528c0.856,2.354,1.598,4.751,2.247,7.204l-6.798,4.58l8.218,1.641
				c0.214,1.084,0.399,2.183,0.57,3.296l0.093,0.67c0.143,1.085,0.257,2.184,0.356,3.268l-7.547,3.767l7.961,2.753
				c0.043,1.198,0.071,2.397,0.071,3.624c0,1.213-0.028,2.439-0.071,3.638l-7.982,2.726l7.568,3.78
				c-0.235,2.426-0.549,4.837-0.948,7.205l-8.289,1.684l7.026,4.736c-0.55,2.354-1.17,4.693-1.869,6.99l-8.438,0.585l6.334,5.593
				c-0.855,2.283-1.776,4.522-2.774,6.72l-8.461-0.514l5.558,6.363c-1.142,2.14-2.354,4.237-3.639,6.292l-8.274-1.612l4.644,7.033
				c-1.405,1.969-2.882,3.895-4.423,5.764l-7.989-2.668l3.674,7.576c-1.647,1.769-3.359,3.495-5.129,5.136L622.216,669.381
				L622.216,669.381z M598.126,692.051l1.862-1.199l0.021,0.357L598.126,692.051L598.126,692.051z M604.817,687.414
				c2.376-1.813,4.63-3.724,6.748-5.735l0.585,2.996c-2.054,1.284-4.158,2.511-6.299,3.652L604.817,687.414L604.817,687.414z
				 M614.354,678.911c2.525-2.64,4.858-5.407,6.977-8.304l2.005,6.006c-1.862,1.541-3.781,3.025-5.757,4.423L614.354,678.911
				L614.354,678.911z"/>
		</g>
		<g>
			<path d="M720.768,583.386c2.238-3.144,3.342-7.03,3.342-11.705c0-4.431-1.005-8.284-3.029-11.527s-4.709-5.564-8.033-6.961
				c-3.326-1.4-8.909-2.109-16.761-2.109h-14.323v70.961h13.5v-30.047h1.251l15.971,30.047h14.769l-16.794-31.547
				C715.154,588.885,718.528,586.514,720.768,583.386z M708.617,577.13c-1.629,1.134-4.593,1.693-8.906,1.693h-4.248v-14.521h3.72
				c3.605,0,6.075,0.247,7.426,0.76c1.35,0.494,2.42,1.315,3.228,2.453c0.806,1.134,1.201,2.483,1.201,4.034
				C711.037,574.149,710.231,576.008,708.617,577.13z"/>
			<path d="M802.512,550.489c-2.075,1.681-3.276,3.968-3.639,6.868c-0.196,1.25-0.295,5.334-0.328,12.198h-4.693v11.196h4.693
				v41.292H811.7v-41.292h8.348v-11.196H811.7l0.048-6.552c0-1.516,0.265-2.503,0.773-2.997c0.71-0.644,1.846-0.956,3.376-0.956
				c1.234,0,2.783,0.266,4.675,0.825v-10.043c-3.423-1.253-6.52-1.878-9.252-1.878C807.533,547.955,804.587,548.796,802.512,550.489
				z"/>
			<path d="M761.584,568.206c-7.771,0-14.242,2.649-19.412,7.937c-5.154,5.299-7.738,11.937-7.738,19.954
				c0,7.802,2.584,14.309,7.771,19.507c5.17,5.188,11.871,7.79,20.103,7.79c5.318,0,9.896-0.937,13.749-2.815
				c3.868-1.894,7.177-4.793,9.944-8.708l-11.098-5.222c-3.54,3.44-7.771,5.172-12.694,5.172c-4.116,0-7.491-1.104-10.143-3.309
				c-2.649-2.206-4.296-5.172-4.905-8.894h42.313l0.05-2.519c0-8.678-2.603-15.658-7.771-20.957
				C776.564,570.855,769.849,568.206,761.584,568.206z M747.736,589.248c1.483-3.244,3.095-5.516,4.823-6.8
				c2.767-2.06,5.995-3.097,9.648-3.097c3.375,0,6.356,0.922,8.907,2.75c2.551,1.844,4.266,4.215,5.137,7.146H747.736z"/>
			<path d="M904.079,570.246c-2.025,1.35-3.639,3.328-4.873,5.928v-6.618h-11.278v52.488h13.073v-21.223l-0.05-2.553
				c0-7.344,0.692-12.249,2.092-14.768c1.398-2.503,3.11-3.752,5.138-3.752c1.002,0,2.271,0.378,3.817,1.149l4.1-11.343
				c-1.876-0.887-3.654-1.35-5.351-1.35C908.327,568.206,906.104,568.881,904.079,570.246z"/>
			<path d="M852.464,568.206c-7.771,0-14.24,2.649-19.41,7.937c-5.154,5.299-7.738,11.937-7.738,19.954
				c0,7.802,2.584,14.309,7.771,19.507c5.17,5.188,11.87,7.79,20.103,7.79c5.316,0,9.894-0.937,13.748-2.815
				c3.868-1.894,7.178-4.793,9.942-8.708l-11.095-5.222c-3.541,3.44-7.773,5.172-12.694,5.172c-4.117,0-7.491-1.104-10.143-3.309
				c-2.649-2.206-4.297-5.172-4.906-8.894h42.313l0.048-2.519c0-8.678-2.602-15.658-7.771-20.957
				C867.447,570.855,860.729,568.206,852.464,568.206z M838.619,589.248c1.48-3.244,3.095-5.516,4.822-6.8
				c2.768-2.06,5.993-3.097,9.649-3.097c3.375,0,6.355,0.922,8.907,2.75c2.551,1.844,4.263,4.215,5.137,7.146H838.619z"/>
			<path d="M1070.771,575.353c-2.701-2.538-5.401-4.362-8.083-5.469c-2.685-1.118-5.532-1.678-8.562-1.678
				c-6.472,0-12.02,2.287-16.695,6.85c-5.138,5.052-7.706,11.739-7.706,20.069c0,7.786,2.42,14.224,7.277,19.295
				c4.857,5.087,10.801,7.624,17.847,7.624c3.211,0,6.092-0.513,8.627-1.516c2.554-1.021,4.974-2.685,7.295-5.006
				c0,4.25-0.445,7.247-1.334,8.975c-0.89,1.743-2.403,3.158-4.561,4.246c-2.158,1.103-4.988,1.646-8.527,1.646
				c-2.767,0-5.17-0.378-7.196-1.134c-2.024-0.76-3.671-1.878-4.956-3.359h-14.52c1.151,3.571,2.931,6.603,5.351,9.105
				c2.403,2.483,5.367,4.377,8.874,5.662c3.506,1.284,7.837,1.928,12.972,1.928c9.649,0,16.861-2.834,21.651-8.496
				c3.573-4.165,5.368-10.702,5.368-19.576v-44.964h-13.122V575.353z M1067.463,606.023c-2.651,2.734-6.028,4.1-10.11,4.1
				c-4.183,0-7.655-1.399-10.405-4.195c-2.765-2.785-4.149-6.375-4.149-10.753c0-4.215,1.35-7.705,4.051-10.489
				c2.7-2.781,6.125-4.165,10.274-4.165c4.213,0,7.655,1.369,10.322,4.1c2.667,2.734,4.001,6.274,4.001,10.651
				C1071.446,599.719,1070.112,603.289,1067.463,606.023z"/>
			<path d="M1232.793,597.1c0-8.678-2.602-15.658-7.771-20.957c-5.186-5.287-11.903-7.937-20.168-7.937
				c-7.771,0-14.24,2.649-19.41,7.937c-5.154,5.299-7.738,11.937-7.738,19.954c0,7.802,2.584,14.309,7.771,19.507
				c5.17,5.188,11.871,7.79,20.103,7.79c5.318,0,9.895-0.937,13.749-2.815c3.868-1.894,7.177-4.793,9.942-8.708l-11.096-5.222
				c-3.54,3.44-7.772,5.172-12.693,5.172c-4.117,0-7.492-1.104-10.144-3.309c-2.649-2.206-4.296-5.172-4.905-8.894h42.313
				L1232.793,597.1z M1191.009,589.248c1.48-3.244,3.095-5.516,4.822-6.8c2.767-2.06,5.993-3.097,9.649-3.097
				c3.374,0,6.355,0.922,8.906,2.75c2.552,1.844,4.264,4.215,5.137,7.146H1191.009z"/>
			<path d="M1102.366,547.955c-2.321,0-4.298,0.821-5.942,2.453c-1.632,1.646-2.455,3.621-2.455,5.942
				c0,2.403,0.823,4.463,2.485,6.144c1.647,1.693,3.656,2.534,6.011,2.534c2.271,0,4.23-0.821,5.878-2.487
				c1.645-1.647,2.452-3.652,2.452-6.009c0-2.368-0.823-4.396-2.47-6.074C1106.663,548.796,1104.671,547.955,1102.366,547.955z"/>
			<polygon points="922.825,622.044 961.564,622.044 961.564,608.773 936.244,608.773 936.244,590.119 961.564,590.119 
				961.564,577.13 936.244,577.13 936.244,564.303 961.564,564.303 961.564,551.083 922.825,551.083 			"/>
			<path d="M1001.392,568.206c-2.536,0-5.021,0.494-7.441,1.481c-2.438,0.972-5.137,2.715-8.134,5.236v-5.368h-13.122v52.488h13.122
				v-21.076c0-5.465,0.197-9.021,0.577-10.667c0.74-3.144,2.072-5.615,3.983-7.394c1.909-1.793,4.198-2.684,6.882-2.684
				c2.06,0,3.771,0.543,5.17,1.615c1.4,1.084,2.388,2.649,2.946,4.709c0.562,2.056,0.841,6.221,0.841,12.495v23.001h13.022v-34.675
				c0-6.059-1.514-10.617-4.576-13.698C1011.023,570.034,1006.611,568.206,1001.392,568.206z"/>
			<path d="M1149.567,568.206c-2.534,0-5.021,0.494-7.441,1.481c-2.438,0.972-5.137,2.715-8.134,5.236v-5.368h-13.122v52.488h13.122
				v-21.076c0-5.465,0.199-9.021,0.577-10.667c0.74-3.144,2.074-5.615,3.983-7.394c1.909-1.793,4.2-2.684,6.882-2.684
				c2.06,0,3.771,0.543,5.17,1.615c1.4,1.084,2.388,2.649,2.948,4.709c0.56,2.056,0.839,6.221,0.839,12.495v23.001h13.022v-34.675
				c0-6.059-1.514-10.617-4.576-13.698C1159.199,570.034,1154.787,568.206,1149.567,568.206z"/>
			<rect x="1095.747" y="569.556" width="13.222" height="52.488"/>
		</g>
	</g>
</g>
</svg>
