<?xml version="1.0" encoding="utf-8"?>
<!-- Generator: Adobe Illustrator 16.0.0, SVG Export Plug-In . SVG Version: 6.00 Build 0)  -->
<!DOCTYPE svg PUBLIC "-//W3C//DTD SVG 1.1//EN" "http://www.w3.org/Graphics/SVG/1.1/DTD/svg11.dtd">
<svg version="1.1" id="Layer_1" xmlns="http://www.w3.org/2000/svg" xmlns:xlink="http://www.w3.org/1999/xlink" x="0px" y="0px"
	 width="120px" height="120px" viewBox="0 0 120 120" enable-background="new 0 0 120 120" xml:space="preserve">
<rect x="0" width="120" height="120"/>
<g>
	<g id="bag_18_">
		<g id="handles_18_">
			<path fill="#FFFFFF" d="M58.752,27.791c-3.407,1.198-5.897,2.221-5.897,8.727v3.131l2.041-0.411v-2.704
				c-0.051-4.414,1.097-5.337,4.074-6.622C58.957,29.079,58.883,28.374,58.752,27.791z"/>
			<path fill="#FFFFFF" d="M64.686,26.399c0.135,0.63,0.242,1.315,0.314,2.052c5.334-0.767,5.232,1.433,5.232,6.026v1.697
				l2.018-0.415v-1.283C72.25,27.345,71.137,25.433,64.686,26.399z"/>
			<path fill="#FFFFFF" d="M43.666,41.486v-9.382c-0.065-5.811,2.937-7.59,8.478-8.889c8.347-1.958,8.877,3.424,8.877,6.847v7.953
				l2.045-0.413v-7.364c-0.021-6.479-2.041-11.331-11.331-9.226c-5.002,1.135-10.11,2.411-10.11,10.899v9.98L43.666,41.486z"/>
		</g>
		<path fill="#FFFFFF" d="M82.465,36.19L26.311,47.417v40.84l56.154,11.229l11.225-4.084V40.273L82.465,36.19z M50.844,79.811
			l-12.459-1.756V67.711h12.459V79.811z M50.844,66.143H38.385v-9.514l12.459-1.759V66.143z M68.117,82.203l-15.708-2.295V67.711
			h15.708V82.203z M68.117,66.143H52.409V54.777l15.708-2.3V66.143z"/>
	</g>
</g>
</svg>
