<?xml version="1.0" encoding="utf-8"?>
<!-- Generator: Adobe Illustrator 16.0.0, SVG Export Plug-In . SVG Version: 6.00 Build 0)  -->
<!DOCTYPE svg PUBLIC "-//W3C//DTD SVG 1.1//EN" "http://www.w3.org/Graphics/SVG/1.1/DTD/svg11.dtd">
<svg version="1.1" id="Layer_1" xmlns="http://www.w3.org/2000/svg" xmlns:xlink="http://www.w3.org/1999/xlink" x="0px" y="0px"
	 width="200px" height="35px" viewBox="0 0 200 35" enable-background="new 0 0 200 35" xml:space="preserve">
<g>
	
		<radialGradient id="SVGID_1_" cx="-699.7485" cy="592.6865" r="0.8701" gradientTransform="matrix(15.748 0 0 15.8517 11038.3555 -9371.1592)" gradientUnits="userSpaceOnUse">
		<stop  offset="0" style="stop-color:#BFD730"/>
		<stop  offset="1" style="stop-color:#77B250"/>
	</radialGradient>
	<path fill-rule="evenodd" clip-rule="evenodd" fill="url(#SVGID_1_)" d="M6.193,20.855c2.012,4.594,6.776,7.605,11.72,8.275
		c0.195-0.171,0.412-0.32,0.644-0.445c-1.192-0.57-2.039-1.78-2.084-3.199c-0.055-2.018,1.523-3.702,3.526-3.764
		c2.007,0.06,3.585,1.741,3.526,3.762c-0.042,1.423-0.886,2.629-2.083,3.201c0.21,0.112,0.409,0.25,0.591,0.4
		c4.43-0.829,7.938-4.311,8.83-8.747c0.083,3.947-1.381,7.837-4.643,10.267l-0.078-0.07l0.007,0.121
		c-0.432,0.316-0.894,0.608-1.388,0.871l-0.032,0.016l-0.27-0.307l-0.03,0.467l-0.398,0.212c-0.318,0.13-0.63,0.248-0.946,0.354
		l-0.377-0.562l-0.145,0.729c-0.421,0.128-0.839,0.229-1.258,0.315l-0.397-0.802l-0.316,0.924c-0.384,0.055-0.764,0.091-1.146,0.11
		l-0.352-1.039L18.572,33c-0.153-0.004-0.306-0.009-0.459-0.02c-0.195-0.025-0.39-0.054-0.583-0.085l-0.239-1.188l-0.672,1.006
		c-0.337-0.079-0.671-0.17-0.999-0.271l-0.082-1.206l-0.796,0.907c-0.325-0.122-0.643-0.253-0.957-0.398l0.073-1.21l-0.908,0.799
		c-0.304-0.164-0.602-0.339-0.894-0.522l0.229-1.188l-1.002,0.666c-0.28-0.202-0.554-0.413-0.819-0.633l0.38-1.146l-1.08,0.525
		c-0.252-0.233-0.495-0.48-0.729-0.733l0.524-1.085l-1.137,0.384c-0.22-0.269-0.43-0.544-0.631-0.825l0.663-1.011l-1.18,0.232
		c-0.183-0.296-0.356-0.596-0.519-0.904l0.791-0.91l-1.201,0.073c-0.143-0.313-0.275-0.636-0.396-0.96l0.902-0.807l-1.201-0.081
		c-0.101-0.33-0.189-0.664-0.266-1.003L6.193,20.855L6.193,20.855z M5.199,15.553c-0.013,0.359-0.01,0.715,0.008,1.063l-0.134-0.069
		C5.105,16.212,5.146,15.88,5.199,15.553L5.199,15.553z M5.269,17.391c0.049,0.443,0.121,0.873,0.215,1.296L5.01,18.521
		C5.004,18.349,5,18.175,5,18.001c0-0.175,0.004-0.348,0.01-0.521L5.269,17.391L5.269,17.391z M5.606,19.186
		c0.138,0.511,0.306,1.005,0.508,1.485l-0.911-0.182c-0.055-0.342-0.101-0.686-0.134-1.033L5.606,19.186L5.606,19.186z"/>
	
		<radialGradient id="SVGID_2_" cx="-702.3779" cy="596.8125" r="0.8003" gradientTransform="matrix(15.748 0 0 15.8517 11078.6055 -9446.7061)" gradientUnits="userSpaceOnUse">
		<stop  offset="0" style="stop-color:#8ED8F8"/>
		<stop  offset="1" style="stop-color:#0095DA"/>
	</radialGradient>
	<path fill-rule="evenodd" clip-rule="evenodd" fill="url(#SVGID_2_)" d="M11.508,10.878c0.021,0.174,0.028,0.348,0.022,0.525
		c1.088-0.755,2.552-0.887,3.795-0.217c1.763,0.96,2.424,3.176,1.475,4.956c-1.055,1.719-3.292,2.253-4.999,1.192
		c-1.204-0.749-1.818-2.086-1.713-3.417c-0.143,0.09-0.292,0.17-0.445,0.238c-1.646,4.34-0.422,9.273,3.016,12.326
		c-3.497-1.933-6.138-5.229-6.53-9.388l0.018-0.005l-0.02-0.011c-0.046-0.491-0.062-0.993-0.042-1.508l0.008-0.235l0.292-0.059
		l-0.284-0.192l0.013-0.346c0.056-0.407,0.126-0.803,0.208-1.19l0.528-0.036l-0.432-0.384c0.113-0.464,0.245-0.914,0.398-1.351
		L7.55,11.82l-0.523-0.601c0.16-0.398,0.339-0.784,0.535-1.157l0.893,0.174L7.92,9.424c0.204-0.335,0.421-0.658,0.654-0.969
		L9.56,8.787L9.089,7.813c0.24-0.28,0.495-0.548,0.761-0.808l0.995,0.486l-0.354-1.065c0.274-0.231,0.561-0.454,0.861-0.668
		l0.934,0.622l-0.213-1.104c0.136-0.083,0.273-0.17,0.415-0.252c0.175-0.102,0.354-0.198,0.533-0.294l0.838,0.736l-0.068-1.114
		c0.336-0.153,0.674-0.292,1.015-0.421l0.734,0.836l0.075-1.11c0.352-0.108,0.704-0.202,1.06-0.284l0.62,0.924l0.215-1.09
		c0.365-0.061,0.729-0.11,1.093-0.143l0.492,0.99l0.357-1.044c0.368-0.013,0.734-0.013,1.101,0.002l0.355,1.047l0.493-0.993
		c0.366,0.035,0.73,0.084,1.093,0.147l0.217,1.083l0.613-0.918c0.357,0.082,0.713,0.176,1.064,0.285l0.072,1.046
		C19.498,4.208,14.533,6.885,11.508,10.878L11.508,10.878z M25.192,3.935c0.344,0.128,0.683,0.268,1.017,0.421L26.17,5.015
		c-0.553-0.141-1.107-0.241-1.663-0.298L25.192,3.935L25.192,3.935z M26.978,4.735c0.321,0.169,0.64,0.351,0.949,0.545l-0.059,0.309
		c-0.437-0.186-0.88-0.346-1.326-0.473L26.978,4.735L26.978,4.735z M28.647,5.759c0.295,0.209,0.585,0.429,0.865,0.661l-0.007,0.022
		c-0.339-0.211-0.681-0.401-1.027-0.571L28.647,5.759L28.647,5.759z"/>
	
		<radialGradient id="SVGID_3_" cx="-710.5444" cy="588.5313" r="0.9466" gradientTransform="matrix(15.748 0 0 15.8517 11213.9023 -9312.3623)" gradientUnits="userSpaceOnUse">
		<stop  offset="0" style="stop-color:#D80B8C"/>
		<stop  offset="1" style="stop-color:#A3238E"/>
	</radialGradient>
	<path fill-rule="evenodd" clip-rule="evenodd" fill="url(#SVGID_3_)" d="M29.376,28.618c2.882-4.112,3.011-9.817,1.03-14.443
		c-0.169-0.072-0.334-0.157-0.493-0.256c0.104,1.326-0.513,2.666-1.711,3.417c-1.709,1.058-3.947,0.523-5.001-1.191
		c-0.953-1.782-0.294-3.998,1.474-4.954c1.246-0.677,2.704-0.544,3.795,0.214c-0.005-0.153,0-0.305,0.016-0.458
		c-2.923-3.508-7.714-4.858-12.009-3.404c3.818-2.331,8.572-2.872,12.676-0.276l0.064,0.041l-0.061,0.184l0.199-0.096l0.498,0.313
		c0.274,0.214,0.537,0.435,0.79,0.66L30.44,8.787l0.482-0.162c0.357,0.333,0.692,0.678,1.003,1.034l-0.378,0.578l0.741-0.145
		c0.272,0.339,0.525,0.687,0.758,1.047l-0.592,0.68l0.968-0.06c0.191,0.34,0.366,0.688,0.524,1.042l-0.797,0.711l1.115,0.076
		c0.123,0.338,0.228,0.681,0.32,1.032l-0.968,0.657l1.17,0.235c0.03,0.155,0.057,0.313,0.081,0.472l0.013,0.096
		c0.02,0.156,0.037,0.313,0.051,0.468l-1.074,0.54l1.132,0.396C34.996,17.654,35,17.826,35,18.002c0,0.175-0.004,0.351-0.011,0.521
		l-1.135,0.391l1.077,0.542c-0.034,0.348-0.079,0.692-0.135,1.032l-1.18,0.241l1,0.679c-0.078,0.337-0.166,0.673-0.266,1.001
		l-1.201,0.085l0.901,0.801c-0.122,0.327-0.252,0.648-0.395,0.962l-1.205-0.073l0.792,0.913c-0.162,0.306-0.335,0.606-0.517,0.901
		l-1.178-0.231l0.66,1.008c-0.199,0.281-0.41,0.559-0.629,0.827l-1.137-0.383l0.523,1.086c-0.235,0.253-0.479,0.5-0.73,0.735
		L29.376,28.618L29.376,28.618z M25.947,31.867l0.266-0.172l0.003,0.051L25.947,31.867L25.947,31.867z M26.899,31.202
		c0.338-0.26,0.66-0.532,0.961-0.82l0.083,0.428c-0.292,0.186-0.591,0.36-0.896,0.524L26.899,31.202L26.899,31.202z M28.257,29.984
		c0.36-0.378,0.692-0.774,0.993-1.19l0.286,0.862c-0.266,0.219-0.539,0.432-0.82,0.632L28.257,29.984L28.257,29.984z"/>
</g>
<path fill-rule="evenodd" clip-rule="evenodd" d="M-274-203.5"/>
<path fill-rule="evenodd" clip-rule="evenodd" d="M137.717,19.547"/>
<g>
	<text transform="matrix(1 0 0 1 43.916 24.5313)" font-family="'OpenSans'" font-size="24">Refer Engine</text>
	<text transform="matrix(1 0 0 1 185.333 19.3896)" font-family="'OpenSans'" font-size="18">™</text>
</g>
</svg>
